<svg id="Layer_1" xmlns="http://www.w3.org/2000/svg" viewBox="0 0 168 48"><style/><path d="M30.9 9.6v12.1c0 10-9 13.7-17.2 12.5 2.9-.7 5.5-2.7 5.5-7.9v-5.5c.1-5.4 1.7-10.4 11.7-11.2M4.1.8v21.1c0 9.6 5.7 11 7.6 11.3 2 .3 4.5-.6 5.5-2.3-1.4-.8-1.5-3.6-1.5-6.9V11.5C15.7 3.5 10 .8 4.1.8" fill="#da2128"/><path d="M57.6 23.8c0 5-2.9 7.3-7.3 7.3s-7.2-2.2-7.2-7.1v-9.3h4.4v9.2c0 2.2 1.1 3.3 2.9 3.3 1.7 0 2.9-1 2.9-3.2v-9.4h4.4v9.2zm6.6 7H60v-12h4.2v1.7c.8-1 1.9-1.9 3.6-1.9 2.6 0 4.1 1.7 4.1 4.4v7.9h-4.2v-6.5c0-1.3-.7-2.1-1.7-2.1s-1.8.7-1.8 2.1v6.4zm14.3-12h-4.2v12.1h4.2V18.8zm0-4.2h-4.2v2.8h4.2v-2.8zm8.1 16.5c-3.9 0-6.7-2.8-6.7-6.3s2.8-6.3 6.7-6.3c3.9 0 6.7 2.8 6.7 6.3s-2.8 6.3-6.7 6.3m0-9c-1.6 0-2.5 1.2-2.5 2.7 0 1.5 1.1 2.7 2.6 2.7 1.6 0 2.5-1.2 2.5-2.7 0-1.5-1.1-2.7-2.6-2.7M99 30.8h-4.2v-12H99v1.7c.8-1 1.9-1.9 3.6-1.9 2.6 0 4.1 1.7 4.1 4.4v7.9h-4.2v-6.5c0-1.3-.7-2.1-1.7-2.1S99 23 99 24.4v6.4zm20.7-8.4c1.1-.6 2.2-1.7 2.2-3.6 0-1.1-.4-2-1.1-2.7-1-.9-2.5-1.5-4.3-1.5h-7v16.2h7.3c1.8 0 3.3-.4 4.3-1.2 1.1-.8 1.7-1.9 1.7-3.3 0-2.1-1.4-3.3-3.1-3.9m-8-5.8h4.6c2.2 0 3.3.9 3.3 2.4 0 .9-.3 1.5-.9 1.9-.6.4-1.5.7-2.5.7h-4.5v-5zm8.8 9.6c0 1.6-1.3 2.6-3.7 2.6h-5.1v-5.2h4.8c1.4 0 2.4.2 3 .7.7.5 1 1.1 1 1.9zm8.9-7.6c-1.8 0-3 .4-4.4 1l-.2.1.7 1.8.2-.1c1.1-.5 2.1-.8 3.5-.8 1.1 0 1.9.3 2.4.7.5.5.8 1.2.8 2.2v.1c-1-.3-2-.4-3.4-.4-1.5 0-2.8.3-3.7 1-.9.7-1.5 1.7-1.5 3s.6 2.2 1.4 2.9c.9.6 2 1 3.1 1 1.8 0 3.1-.7 4-1.6v1.4h2.1v-7.3c0-1.5-.4-2.7-1.3-3.6-.7-1-2-1.4-3.7-1.4m3.1 7.7c0 .9-.4 1.6-1.1 2.1-.7.5-1.6.8-2.6.8-.8 0-1.5-.2-1.9-.6-.5-.4-.8-.9-.8-1.5 0-1.2 1.1-2.1 3.2-2.1 1.3 0 2.4.2 3.2.4v.9zm10.2-7.8c-1.8 0-3 .8-3.8 1.8v-1.6h-2.2v12.1h2.2V24c0-2.1 1.4-3.4 3.3-3.4 2 0 3 1.2 3 3.3v7h2.2v-7.5c0-1.4-.4-2.7-1.2-3.5-.8-.9-2-1.4-3.5-1.4m12.6 5.5l5.1-5.2h-2.8l-6 6.3V14.6h-2.2v16.2h2.2v-3.2l2.2-2.2 4.1 5.3h2.6l-5.2-6.7zm6.5-3.6c0-.9.7-1.6 1.6-1.6.9 0 1.6.7 1.6 1.6 0 .9-.7 1.6-1.6 1.6-.9 0-1.6-.8-1.6-1.6m3-.1c0-.8-.6-1.4-1.4-1.4-.8 0-1.4.7-1.4 1.4 0 .8.6 1.4 1.4 1.4.8.1 1.4-.6 1.4-1.4m-2-.8h.7c.4 0 .6.2.6.5s-.2.4-.4.5l.4.6h-.4l-.4-.6h-.3v.6h-.3v-1.6zm.7.8c.2 0 .3-.1.3-.3 0-.2-.1-.3-.3-.3h-.4v.5h.4z" fill="#58595b"/></svg>