<?xml version="1.0" encoding="utf-8"?>
<!-- Generator: Adobe Illustrator 21.1.0, SVG Export Plug-In . SVG Version: 6.00 Build 0)  -->
<svg version="1.1" id="Layer_1" xmlns="http://www.w3.org/2000/svg" xmlns:xlink="http://www.w3.org/1999/xlink" x="0px" y="0px"
	 viewBox="0 0 168.5 31.1" style="enable-background:new 0 0 168.5 31.1;" xml:space="preserve">
<style type="text/css">
	.st0{fill:#F37920;}
	.st1{fill:#929497;}
	.st2{fill:#231F20;}
</style>
<path class="st0" d="M16.6,14.4c0,3.3-1.9,3.9-4.7,3.9H7.1c-2.8,0-4.7-0.6-4.7-3.9v-2.8c0-3.3,1.9-3.9,4.7-3.9h4.8
	c2.8,0,4.7,0.6,4.7,3.9V14.4z M0,14.5c0,4.7,3.3,5.7,7.8,5.7h3.4c4.5,0,7.8-1.1,7.8-5.7v-3.1c0-4.7-3.3-5.7-7.8-5.7H7.8
	C3.3,5.7,0,6.8,0,11.4V14.5z"/>
<path class="st0" d="M26.4,30.9h2.4V18.2h0.1c0.5,1.5,1.6,2.1,4.2,2.1h4.5c4.9,0,6.9-1.5,6.9-6.1v-2.5c0-4.9-3.2-6-6.5-6h-4.5
	c-2.1,0-4,0.7-4.7,2.5h-0.1V5.9h-2.2V30.9z M42,14.5c0,3.3-1.7,3.9-4.4,3.9h-4.2c-2.5,0-4.6-0.6-4.6-3.9v-2.7c0-2.4,1.2-4.1,4.3-4.1
	h4.7c3.4,0,4.2,1.3,4.2,4V14.5z"/>
<path class="st0" d="M52.8,15.8c0,2.3,1.1,4.5,5.5,4.5h1.3c5.1,0,5.4-2.2,5.4-5.1v-1.6h-1.9v1.1c0,3-0.5,3.6-3.7,3.6h-0.7
	c-2.6,0-3.5-0.8-3.5-3.4v-7h9.4V5.9h-9.4V2.6h-2.4v3.3h-3.1v1.9h3.1V15.8z"/>
<path class="st0" d="M71.6,2.6H74V0h-2.4V2.6z M71.6,20.1H74V5.9h-2.4V20.1z"/>
<path class="st0" d="M82.2,20.1h2.4v-8.9c0-2.3,1.4-3.5,4.5-3.5h2.4c3.8,0,4.7,1.1,4.7,3.8v8.6h2.4v-8.4c0-2.3,0.6-4,4.9-4h1.7
	c3.8,0,4.5,1.6,4.5,3.2v9.2h2.4v-9.5c0-3.2-2.4-4.9-6.2-4.9h-2.9c-2.4,0-4.3,0.7-5.2,2.6c-0.7-1.7-2.4-2.6-4.6-2.6h-3.8
	c-2.4,0-3.7,0.4-4.7,1.9h-0.1V5.9h-2.2V20.1z"/>
<path class="st0" d="M120,2.6h2.4V0H120V2.6z M120,20.1h2.4V5.9H120V20.1z"/>
<path class="st0" d="M131.8,15.8c0,2.3,1.1,4.5,5.5,4.5h1.3c5.2,0,5.4-2.2,5.4-5.1v-1.6h-1.9v1.1c0,3-0.5,3.6-3.7,3.6h-0.7
	c-2.6,0-3.5-0.8-3.5-3.4v-7h9.4V5.9h-9.4V2.6h-2.4v3.3h-3.1v1.9h3.1V15.8z"/>
<path class="st0" d="M148.1,30.9c4.9-0.1,5.9-0.6,7.4-3.5l10.9-21.5h-2.6l-6.1,12.5l-6.8-12.5h-2.7l8,14.3h0.6
	c-3.5,7.4-3.5,8.7-8.6,8.7V30.9z"/>
<path class="st1" d="M38.8,26.1l-0.8,2.6h1.7L38.8,26.1z M38.5,24.9h1l2.2,6.1h-1.3L40,29.7h-2.4L37.2,31h-1.3l2-5.7
	C38,25.1,38.2,24.9,38.5,24.9"/>
<path class="st1" d="M52.3,29.9h1c0.6,0,1-0.2,1.3-0.5c0.3-0.3,0.4-0.8,0.4-1.5c0-0.7-0.1-1.2-0.4-1.5C54.3,26.1,54,26,53.4,26h-1.2
	V29.9z M51.1,31v-5.4c0-0.2,0.1-0.3,0.2-0.4c0.1-0.1,0.3-0.2,0.5-0.2h1.8c0.9,0,1.6,0.2,2.1,0.7c0.5,0.5,0.7,1.3,0.7,2.3
	c0,0.5-0.1,1-0.2,1.5c-0.2,0.5-0.4,0.8-0.7,1c-0.3,0.2-0.5,0.3-0.8,0.4C54.1,31,53.7,31,53.1,31H51.1z"/>
<path class="st1" d="M67.6,31l-2.1-6.1h1.4l1.3,4.5l1.2-4.1c0.1-0.3,0.3-0.5,0.6-0.5h0.9L68.8,31H67.6z"/>
<path class="st1" d="M80.2,31v-5.4c0-0.2,0.1-0.3,0.2-0.4c0.1-0.1,0.3-0.2,0.5-0.2h0.6V31H80.2z"/>
<path class="st1" d="M90.6,29.1h1.2c0,0.4,0.2,0.6,0.4,0.7c0.2,0.2,0.6,0.2,1,0.2c0.4,0,0.6-0.1,0.8-0.2c0.2-0.1,0.3-0.3,0.3-0.6
	c0-0.4-0.5-0.7-1.6-0.9l0,0c0,0,0,0-0.1,0c-0.6-0.1-1-0.3-1.2-0.4c-0.2-0.1-0.4-0.3-0.5-0.6c-0.1-0.2-0.2-0.5-0.2-0.8
	c0-0.6,0.2-1,0.6-1.4c0.4-0.3,1-0.5,1.8-0.5c0.7,0,1.3,0.2,1.7,0.5c0.4,0.4,0.6,0.8,0.6,1.4h-0.7c-0.3,0-0.5-0.1-0.6-0.4
	c-0.1-0.1-0.1-0.2-0.2-0.3c-0.2-0.2-0.5-0.2-0.9-0.2c-0.4,0-0.6,0.1-0.8,0.2c-0.2,0.1-0.3,0.3-0.3,0.5c0,0.3,0.3,0.6,1,0.7
	c0.2,0.1,0.3,0.1,0.4,0.1c0.2,0.1,0.4,0.1,0.5,0.2c0.2,0,0.3,0.1,0.4,0.1c0.2,0.1,0.3,0.1,0.5,0.2c0.2,0.1,0.4,0.3,0.5,0.5
	c0.1,0.2,0.2,0.5,0.2,0.8c0,0.6-0.2,1.1-0.6,1.5c-0.4,0.3-1,0.5-1.8,0.5c-0.8,0-1.4-0.2-1.8-0.5C90.9,30.3,90.6,29.8,90.6,29.1"/>
<path class="st1" d="M104.7,28c0-1,0.3-1.8,0.8-2.4c0.6-0.6,1.3-0.9,2.2-0.9c0.9,0,1.6,0.3,2.2,0.9c0.5,0.6,0.8,1.4,0.8,2.4
	c0,1-0.3,1.8-0.8,2.3c-0.5,0.6-1.3,0.8-2.2,0.8c-0.9,0-1.6-0.3-2.2-0.8C105,29.7,104.7,28.9,104.7,28 M106,28c0,0.7,0.1,1.2,0.4,1.6
	c0.3,0.4,0.7,0.5,1.3,0.5c0.5,0,0.9-0.2,1.3-0.5c0.3-0.4,0.5-0.9,0.5-1.6c0-0.7-0.2-1.2-0.5-1.6c-0.3-0.4-0.7-0.5-1.3-0.5
	c-0.5,0-1,0.2-1.3,0.5C106.1,26.8,106,27.3,106,28"/>
<path class="st1" d="M121.3,27.6h1.5c0.3,0,0.6-0.1,0.7-0.2c0.2-0.1,0.2-0.3,0.2-0.6c0-0.3-0.1-0.5-0.2-0.6
	c-0.1-0.1-0.4-0.2-0.6-0.2h-1.5V27.6z M120,31v-5.4c0-0.2,0.1-0.3,0.2-0.4c0.1-0.1,0.3-0.2,0.5-0.2h2.3c0.7,0,1.1,0.1,1.5,0.4
	c0.3,0.3,0.5,0.7,0.5,1.3c0,0.4-0.1,0.7-0.2,0.9c-0.1,0.2-0.4,0.4-0.7,0.5c0.3,0.1,0.5,0.2,0.6,0.4c0.1,0.2,0.2,0.5,0.2,0.9l0,0.7
	v0.2c0,0.1,0,0.2,0,0.2c0,0.2,0.1,0.3,0.2,0.4h-1.4c-0.1-0.1-0.1-0.2-0.1-0.4c0-0.2,0-0.3,0-0.4l0-0.7c0-0.4-0.1-0.6-0.2-0.8
	c-0.1-0.1-0.4-0.2-0.7-0.2h-1.3V31H120z"/>
<path class="st1" d="M134.3,29.1h1.2c0,0.4,0.2,0.6,0.4,0.7c0.2,0.2,0.6,0.2,1,0.2c0.4,0,0.6-0.1,0.8-0.2c0.2-0.1,0.3-0.3,0.3-0.6
	c0-0.4-0.5-0.7-1.6-0.9l0,0c0,0,0,0-0.1,0c-0.6-0.1-1-0.3-1.2-0.4c-0.2-0.1-0.4-0.3-0.5-0.6c-0.1-0.2-0.2-0.5-0.2-0.8
	c0-0.6,0.2-1,0.6-1.4c0.4-0.3,1-0.5,1.8-0.5c0.7,0,1.3,0.2,1.7,0.5c0.4,0.4,0.6,0.8,0.6,1.4h-0.7c-0.3,0-0.5-0.1-0.6-0.4
	c-0.1-0.1-0.1-0.2-0.2-0.3c-0.2-0.2-0.5-0.2-0.9-0.2c-0.4,0-0.6,0.1-0.8,0.2c-0.2,0.1-0.3,0.3-0.3,0.5c0,0.3,0.3,0.6,1,0.7
	c0.2,0.1,0.3,0.1,0.4,0.1c0.2,0.1,0.4,0.1,0.5,0.2c0.2,0,0.3,0.1,0.4,0.1c0.2,0.1,0.3,0.1,0.5,0.2c0.2,0.1,0.4,0.3,0.5,0.5
	c0.1,0.2,0.2,0.5,0.2,0.8c0,0.6-0.2,1.1-0.6,1.5c-0.4,0.3-1,0.5-1.8,0.5c-0.8,0-1.4-0.2-1.8-0.5C134.6,30.3,134.4,29.8,134.3,29.1"
	/>
<path class="st2" d="M167.9,19.4c-0.4,0.4-0.9,0.6-1.5,0.6c-0.6,0-1.1-0.2-1.5-0.6c-0.4-0.4-0.6-0.9-0.6-1.5c0-0.6,0.2-1.1,0.6-1.5
	c0.4-0.4,0.9-0.6,1.5-0.6c0.6,0,1.1,0.2,1.5,0.6c0.4,0.4,0.6,0.9,0.6,1.5C168.5,18.5,168.3,19,167.9,19.4 M165.1,16.6
	c-0.4,0.4-0.5,0.8-0.5,1.3c0,0.5,0.2,1,0.5,1.3c0.4,0.4,0.8,0.5,1.3,0.5c0.5,0,0.9-0.2,1.3-0.5c0.4-0.4,0.5-0.8,0.5-1.3
	c0-0.5-0.2-0.9-0.5-1.3c-0.4-0.4-0.8-0.5-1.3-0.5C165.9,16,165.4,16.2,165.1,16.6 M166.3,16.7c0.3,0,0.5,0,0.6,0.1
	c0.2,0.1,0.4,0.3,0.4,0.6c0,0.2-0.1,0.4-0.2,0.5c-0.1,0.1-0.2,0.1-0.3,0.1c0.2,0,0.3,0.1,0.4,0.2c0.1,0.1,0.1,0.2,0.1,0.4v0.2
	c0,0.1,0,0.1,0,0.2c0,0.1,0,0.1,0,0.1l0,0H167c0,0,0,0,0,0c0,0,0,0,0,0l0-0.1v-0.2c0-0.3-0.1-0.5-0.2-0.5c-0.1,0-0.2-0.1-0.5-0.1
	h-0.3v0.9h-0.4v-2.4H166.3z M166.8,17.1c-0.1-0.1-0.3-0.1-0.5-0.1h-0.4v0.9h0.4c0.2,0,0.3,0,0.4-0.1c0.2-0.1,0.2-0.2,0.2-0.4
	C166.9,17.2,166.9,17.1,166.8,17.1"/>
</svg>
