<?xml version="1.0" encoding="utf-8"?>
<!-- Generator: Adobe Illustrator 21.1.0, SVG Export Plug-In . SVG Version: 6.00 Build 0)  -->
<svg version="1.1" id="Layer_1" xmlns="http://www.w3.org/2000/svg" xmlns:xlink="http://www.w3.org/1999/xlink" x="0px" y="0px"
	 viewBox="0 0 64.7 64.2" style="enable-background:new 0 0 64.7 64.2;" xml:space="preserve">
<style type="text/css">
	.st0{fill:#929497;}
	.st1{fill:#F37920;}
</style>
<path class="st0" d="M32,11c-10.7,0-19.3,8.6-19.3,19.3c0,10.6,8.6,19.3,19.3,19.3S51.3,41,51.3,30.3C51.3,19.7,42.7,11,32,11
	 M32,8.3c12.1,0,22,9.8,22,22c0,12.1-9.8,22-22,22c-12.1,0-22-9.8-22-22C10,18.2,19.9,8.3,32,8.3"/>
<polygon class="st1" points="31.9,64.2 35.3,35.8 44.6,42.4 38,32.9 64.7,30.6 38.1,28.3 44.6,19 35.3,25.6 32,0.1 "/>
<polygon class="st0" points="29.4,25.6 20.1,19 26.6,28.3 0,30.6 26.7,32.9 20.1,42.4 29.4,35.8 31.9,64.2 32,0 "/>
</svg>
